<svg xmlns="http://www.w3.org/2000/svg" viewBox="0 0 3154.93 2460.95"><defs><style>.cls-1,.cls-3{fill:#231f20;}.cls-2,.cls-5{fill:#fff;}.cls-3{stroke:#ef4136;stroke-miterlimit:10;stroke-width:0.75px;}.cls-4{fill:#2e3192;}.cls-5{font-size:222.07px;font-family:ArialRoundedMTBold, Arial Rounded MT Bold;}.cls-6{letter-spacing:-0.09em;}.cls-7{letter-spacing:-0.06em;}.cls-8{letter-spacing:0em;}</style></defs><g id="Layer_1" data-name="Layer 1"><circle class="cls-1" cx="1697.21" cy="201.7" r="201.7"/><path class="cls-2" d="M2400.24-236s-73.45,7.6-86.95,40.52c0,0-22.8,34.61,14.77,73.45l62.47,30.39s43.48,22.37-3.8,55.29c0,0-32.08,13.51-62.47-5.06,0,0-56.56-23.64-63.32-62,0,0-18.57-54.87,2.12-85.26,0,0,8.86-20.69,49.8-44.33C2312.86-233.09,2367.74-256.3,2400.24-236Z" transform="translate(-685.07 320.6)"/><path class="cls-2" d="M2353.71-3.26s73.7-4.5,88.58-36.83c0,0,24.23-33.62-11.67-74l-61.13-33s-42.5-24.18,6.12-55.08c0,0,32.62-12.15,62.2,7.69,0,0,55.52,26,60.65,64.66,0,0,16.25,55.61-5.7,85.1,0,0-9.73,20.29-51.63,42.18C2441.13-2.54,2385.33,18.35,2353.71-3.26Z" transform="translate(-685.07 320.6)"/><path class="cls-3" d="M293.25-66.8" transform="translate(-685.07 320.6)"/><rect class="cls-1" x="1234.93" y="1387.49" width="1920" height="1073.47"/><circle class="cls-2" cx="274.93" cy="808.69" r="145.79"/><path class="cls-1" d="M963.75,395.7S910.66,401.19,900.9,425c0,0-16.47,25,10.68,53.08l45.15,22s31.43,16.17-2.74,40c0,0-23.19,9.77-45.16-3.66,0,0-40.88-17.08-45.76-44.84,0,0-13.42-39.67,1.52-61.63,0,0,6.41-14.95,36-32C900.6,397.83,940.26,381.05,963.75,395.7Z" transform="translate(-685.07 320.6)"/><path class="cls-1" d="M930.12,563.94s53.27-3.25,64-26.61c0,0,17.52-24.3-8.43-53.49L941.52,460s-30.71-17.48,4.43-39.81c0,0,23.58-8.78,45,5.56,0,0,40.12,18.79,43.83,46.73,0,0,11.74,40.19-4.12,61.51,0,0-7,14.67-37.32,30.49C993.3,564.47,953,579.56,930.12,563.94Z" transform="translate(-685.07 320.6)"/><circle class="cls-2" cx="274.93" cy="808.69" r="145.79"/><path class="cls-4" d="M963.75,395.7S910.66,401.19,900.9,425c0,0-16.47,25,10.68,53.08l45.15,22s31.43,16.17-2.74,40c0,0-23.19,9.77-45.16-3.66,0,0-40.88-17.08-45.76-44.84,0,0-13.42-39.67,1.52-61.63,0,0,6.41-14.95,36-32C900.6,397.83,940.26,381.05,963.75,395.7Z" transform="translate(-685.07 320.6)"/><path class="cls-4" d="M930.12,563.94s53.27-3.25,64-26.61c0,0,17.52-24.3-8.43-53.49L941.52,460s-30.71-17.48,4.43-39.81c0,0,23.58-8.78,45,5.56,0,0,40.12,18.79,43.83,46.73,0,0,11.74,40.19-4.12,61.51,0,0-7,14.67-37.32,30.49C993.3,564.47,953,579.56,930.12,563.94Z" transform="translate(-685.07 320.6)"/></g><g id="Layer_3" data-name="Layer 3"><text class="cls-5" transform="translate(0 1619.88)">SUP<tspan class="cls-6" x="464.95" y="0">P</tspan><tspan class="cls-7" x="593.55" y="0">A</tspan><tspan class="cls-8" x="739.28" y="0">Y</tspan></text></g></svg>